<svg width="20.000000" height="20.333496" viewBox="0 0 20 20.3335" fill="none" xmlns="http://www.w3.org/2000/svg" xmlns:xlink="http://www.w3.org/1999/xlink">
	<desc>
			Created with Pixso.
	</desc>
	<defs>
		<filter id="filter_336_5392_dd" x="1.500000" y="1.667725" width="17.000000" height="18.665771" filterUnits="userSpaceOnUse" color-interpolation-filters="sRGB">
			<feFlood flood-opacity="0" result="BackgroundImageFix"/>
			<feColorMatrix in="SourceAlpha" type="matrix" values="0 0 0 0 0 0 0 0 0 0 0 0 0 0 0 0 0 0 127 0" result="hardAlpha"/>
			<feOffset dx="0" dy="1"/>
			<feGaussianBlur stdDeviation="0.333333"/>
			<feComposite in2="hardAlpha" operator="out" k2="-1" k3="1"/>
			<feColorMatrix type="matrix" values="0 0 0 0 0 0 0 0 0 0 0 0 0 0 0 0 0 0 0.25 0"/>
			<feBlend mode="normal" in2="BackgroundImageFix" result="effect_dropShadow_1"/>
			<feBlend mode="normal" in="SourceGraphic" in2="effect_dropShadow_1" result="shape"/>
		</filter>
	</defs>
	<g filter="url(#filter_336_5392_dd)">
		<path id="Vector" d="M5.83 5.83C5.83 5.04 6.05 4.27 6.47 3.6C6.9 2.94 7.5 2.4 8.21 2.06C8.92 1.73 9.72 1.6 10.5 1.69C11.28 1.79 12.02 2.1 12.63 2.6C13.24 3.1 13.7 3.76 13.95 4.51C14.2 5.26 14.23 6.06 14.04 6.83C13.85 7.59 13.45 8.29 12.88 8.83C12.31 9.38 11.6 9.75 10.83 9.91L10.83 14.16C10.83 14.38 10.74 14.59 10.58 14.75C10.43 14.91 10.22 15 10 15C9.77 15 9.56 14.91 9.41 14.75C9.25 14.59 9.16 14.38 9.16 14.16L9.16 9.91C8.22 9.72 7.37 9.21 6.77 8.46C6.16 7.72 5.83 6.79 5.83 5.83ZM7.9 13.41C7.92 13.52 7.91 13.63 7.89 13.74C7.86 13.84 7.82 13.94 7.75 14.03C7.69 14.12 7.6 14.19 7.51 14.25C7.42 14.31 7.31 14.35 7.2 14.36C6.14 14.52 5.29 14.77 4.74 15.04C4.46 15.18 4.29 15.3 4.21 15.39C4.2 15.4 4.19 15.41 4.19 15.41C4.22 15.44 4.26 15.49 4.35 15.55C4.58 15.73 4.97 15.92 5.53 16.09C6.63 16.44 8.21 16.66 10 16.66C11.78 16.66 13.36 16.44 14.46 16.09C15.02 15.92 15.41 15.73 15.64 15.55C15.73 15.49 15.77 15.44 15.8 15.41C15.8 15.41 15.79 15.4 15.78 15.39C15.7 15.3 15.53 15.18 15.25 15.04C14.7 14.77 13.85 14.52 12.79 14.36C12.68 14.35 12.57 14.31 12.48 14.25C12.38 14.2 12.3 14.12 12.23 14.04C12.17 13.95 12.12 13.85 12.09 13.74C12.06 13.63 12.06 13.52 12.08 13.41C12.09 13.3 12.13 13.2 12.19 13.1C12.25 13.01 12.32 12.93 12.41 12.86C12.5 12.8 12.6 12.75 12.71 12.73C12.82 12.7 12.93 12.7 13.04 12.71C14.19 12.89 15.22 13.17 15.99 13.54C16.37 13.73 16.72 13.96 16.99 14.25C17.27 14.54 17.5 14.93 17.5 15.41C17.5 16.09 17.06 16.58 16.63 16.89C16.19 17.22 15.61 17.48 14.96 17.68C13.65 18.09 11.9 18.33 10 18.33C8.09 18.33 6.34 18.09 5.03 17.68C4.38 17.48 3.8 17.22 3.36 16.89C2.93 16.58 2.5 16.09 2.5 15.41C2.5 14.93 2.72 14.54 3 14.25C3.27 13.96 3.62 13.73 4 13.55C4.77 13.17 5.8 12.89 6.95 12.71C7.06 12.7 7.17 12.7 7.28 12.73C7.38 12.76 7.48 12.8 7.57 12.87C7.66 12.93 7.73 13.01 7.79 13.11C7.85 13.2 7.89 13.3 7.9 13.41Z" fill="#000000" fill-opacity="1.000000" fill-rule="evenodd"/>
	</g>
</svg>
