<svg width="20.000000" height="20.000000" viewBox="0 0 20 20" fill="none" xmlns="http://www.w3.org/2000/svg" xmlns:xlink="http://www.w3.org/1999/xlink">
	<desc>
			Created with Pixso.
	</desc>
	<defs>
		<filter id="filter_336_5396_dd" x="0.042480" y="0.458252" width="19.915771" height="19.500000" filterUnits="userSpaceOnUse" color-interpolation-filters="sRGB">
			<feFlood flood-opacity="0" result="BackgroundImageFix"/>
			<feColorMatrix in="SourceAlpha" type="matrix" values="0 0 0 0 0 0 0 0 0 0 0 0 0 0 0 0 0 0 127 0" result="hardAlpha"/>
			<feOffset dx="0" dy="1"/>
			<feGaussianBlur stdDeviation="0.333333"/>
			<feComposite in2="hardAlpha" operator="out" k2="-1" k3="1"/>
			<feColorMatrix type="matrix" values="0 0 0 0 0 0 0 0 0 0 0 0 0 0 0 0 0 0 0.25 0"/>
			<feBlend mode="normal" in2="BackgroundImageFix" result="effect_dropShadow_1"/>
			<feBlend mode="normal" in="SourceGraphic" in2="effect_dropShadow_1" result="shape"/>
		</filter>
		<clipPath id="clip336_5394">
			<rect id="solar:calendar-outline" width="20.000000" height="20.000000" fill="white" fill-opacity="0"/>
		</clipPath>
	</defs>
	<rect id="solar:calendar-outline" width="20.000000" height="20.000000" fill="#FFFFFF" fill-opacity="0"/>
	<g clip-path="url(#clip336_5394)">
		<path id="Vector" d="M14.16 10.66C14.38 10.66 14.59 10.57 14.75 10.42C14.91 10.26 15 10.05 15 9.83C15 9.61 14.91 9.4 14.75 9.24C14.59 9.08 14.38 9 14.16 9C13.94 9 13.73 9.08 13.57 9.24C13.42 9.4 13.33 9.61 13.33 9.83C13.33 10.05 13.42 10.26 13.57 10.42C13.73 10.57 13.94 10.66 14.16 10.66ZM14.16 14C14.38 14 14.59 13.91 14.75 13.75C14.91 13.59 15 13.38 15 13.16C15 12.94 14.91 12.73 14.75 12.57C14.59 12.42 14.38 12.33 14.16 12.33C13.94 12.33 13.73 12.42 13.57 12.57C13.42 12.73 13.33 12.94 13.33 13.16C13.33 13.38 13.42 13.59 13.57 13.75C13.73 13.91 13.94 14 14.16 14ZM10.83 9.83C10.83 10.05 10.74 10.26 10.58 10.42C10.43 10.57 10.22 10.66 10 10.66C9.77 10.66 9.56 10.57 9.41 10.42C9.25 10.26 9.16 10.05 9.16 9.83C9.16 9.61 9.25 9.4 9.41 9.24C9.56 9.08 9.77 9 10 9C10.22 9 10.43 9.08 10.58 9.24C10.74 9.4 10.83 9.61 10.83 9.83ZM10.83 13.16C10.83 13.38 10.74 13.59 10.58 13.75C10.43 13.91 10.22 14 10 14C9.77 14 9.56 13.91 9.41 13.75C9.25 13.59 9.16 13.38 9.16 13.16C9.16 12.94 9.25 12.73 9.41 12.57C9.56 12.42 9.77 12.33 10 12.33C10.22 12.33 10.43 12.42 10.58 12.57C10.74 12.73 10.83 12.94 10.83 13.16ZM5.83 10.66C6.05 10.66 6.26 10.57 6.42 10.42C6.57 10.26 6.66 10.05 6.66 9.83C6.66 9.61 6.57 9.4 6.42 9.24C6.26 9.08 6.05 9 5.83 9C5.61 9 5.4 9.08 5.24 9.24C5.08 9.4 5 9.61 5 9.83C5 10.05 5.08 10.26 5.24 10.42C5.4 10.57 5.61 10.66 5.83 10.66ZM5.83 14C6.05 14 6.26 13.91 6.42 13.75C6.57 13.59 6.66 13.38 6.66 13.16C6.66 12.94 6.57 12.73 6.42 12.57C6.26 12.42 6.05 12.33 5.83 12.33C5.61 12.33 5.4 12.42 5.24 12.57C5.08 12.73 5 12.94 5 13.16C5 13.38 5.08 13.59 5.24 13.75C5.4 13.91 5.61 14 5.83 14Z" fill="#000000" fill-opacity="1.000000" fill-rule="nonzero"/>
		<g filter="url(#filter_336_5396_dd)">
			<path id="Vector" d="M5.83 0.45C5.99 0.45 6.15 0.52 6.27 0.64C6.39 0.75 6.45 0.91 6.45 1.08L6.45 1.71C7.01 1.7 7.61 1.7 8.28 1.7L11.71 1.7C12.38 1.7 12.99 1.7 13.54 1.71L13.54 1.08C13.54 0.91 13.6 0.75 13.72 0.64C13.84 0.52 14 0.45 14.16 0.45C14.33 0.45 14.49 0.52 14.6 0.64C14.72 0.75 14.79 0.91 14.79 1.08L14.79 1.77C15 1.78 15.21 1.8 15.4 1.83C16.38 1.96 17.17 2.24 17.79 2.86C18.42 3.49 18.69 4.28 18.83 5.25C18.95 6.2 18.95 7.42 18.95 8.95L18.95 10.71C18.95 12.24 18.95 13.45 18.83 14.4C18.69 15.38 18.42 16.17 17.79 16.79C17.17 17.42 16.38 17.69 15.4 17.83C14.45 17.95 13.24 17.95 11.71 17.95L8.28 17.95C6.75 17.95 5.54 17.95 4.59 17.83C3.61 17.69 2.82 17.42 2.2 16.79C1.57 16.17 1.3 15.38 1.16 14.4C1.04 13.45 1.04 12.24 1.04 10.71L1.04 8.95C1.04 7.42 1.04 6.2 1.16 5.25C1.3 4.28 1.57 3.49 2.2 2.86C2.82 2.24 3.61 1.96 4.59 1.83C4.78 1.8 4.99 1.78 5.2 1.77L5.2 1.08C5.2 0.91 5.27 0.75 5.39 0.64C5.5 0.52 5.66 0.45 5.83 0.45ZM2.29 9C2.29 8.28 2.29 7.66 2.3 7.12L17.69 7.12C17.7 7.66 17.7 8.28 17.7 9L17.7 10.66C17.7 12.25 17.7 13.38 17.59 14.24C17.47 15.07 17.26 15.56 16.91 15.91C16.56 16.26 16.07 16.47 15.24 16.59C14.38 16.7 13.25 16.7 11.66 16.7L8.33 16.7C6.74 16.7 5.61 16.7 4.75 16.59C3.92 16.47 3.43 16.26 3.08 15.91C2.73 15.56 2.52 15.07 2.4 14.24C2.29 13.38 2.29 12.25 2.29 10.66L2.29 9Z" fill="#000000" fill-opacity="1.000000" fill-rule="evenodd"/>
		</g>
	</g>
</svg>
