<svg width="25.000000" height="15.000000" viewBox="0 0 25 15" fill="none" xmlns="http://www.w3.org/2000/svg" xmlns:xlink="http://www.w3.org/1999/xlink">
	<desc>
			Created with Pixso.
	</desc>
	<defs/>
	<path id="Vector" d="M0 -0.5L24 -0.5L24 14.5L0 14.5L0 -0.5Z" fill="#1E50A0" fill-opacity="1.000000" fill-rule="nonzero"/>
	<path id="Vector" d="M13.54 4.18L13.54 5.42L17.48 5.42L24 1.35L24 -0.5L21.03 -0.5L13.54 4.18Z" fill="#FFFFFF" fill-opacity="1.000000" fill-rule="nonzero"/>
	<path id="Vector" d="M24 -0.5L22.51 -0.5L13.54 5.1L13.54 5.42L14.89 5.42L24 -0.27L24 -0.5Z" fill="#E23E57" fill-opacity="1.000000" fill-rule="nonzero"/>
	<path id="Vector" d="M21.03 14.5L24 14.5L24 12.64L17.49 8.57L13.54 8.57L13.54 9.81L21.03 14.5Z" fill="#FFFFFF" fill-opacity="1.000000" fill-rule="nonzero"/>
	<path id="Vector" d="M24 14.5L24 13.57L16 8.57L14.15 8.57L23.62 14.5L24 14.5Z" fill="#E23E57" fill-opacity="1.000000" fill-rule="nonzero"/>
	<path id="Vector" d="M10.45 9.82L10.45 8.57L6.51 8.57L0 12.64L0 14.5L2.96 14.5L10.45 9.82Z" fill="#FFFFFF" fill-opacity="1.000000" fill-rule="nonzero"/>
	<path id="Vector" d="M0 14.5L1.48 14.5L10.45 8.89L10.45 8.57L9.1 8.57L0 14.26L0 14.5Z" fill="#E23E57" fill-opacity="1.000000" fill-rule="nonzero"/>
	<path id="Vector" d="M2.96 -0.5L0 -0.5L0 1.35L6.51 5.42L10.45 5.42L10.45 4.18L2.96 -0.5Z" fill="#FFFFFF" fill-opacity="1.000000" fill-rule="nonzero"/>
	<path id="Vector" d="M0 -0.5L0 0.42L7.99 5.42L9.84 5.42L0.37 -0.5L0 -0.5Z" fill="#E23E57" fill-opacity="1.000000" fill-rule="nonzero"/>
	<path id="Vector" d="M0 5.02L24 5.02L24 8.97L0 8.97L0 5.02Z" fill="#FFFFFF" fill-opacity="1.000000" fill-rule="nonzero"/>
	<path id="Vector" d="M10.06 -0.5L13.93 -0.5L13.93 14.5L10.06 14.5L10.06 -0.5Z" fill="#FFFFFF" fill-opacity="1.000000" fill-rule="nonzero"/>
	<path id="Vector" d="M0 5.81L24 5.81L24 8.18L0 8.18L0 5.81Z" fill="#E23E57" fill-opacity="1.000000" fill-rule="nonzero"/>
	<path id="Vector" d="M10.83 -0.5L13.16 -0.5L13.16 14.5L10.83 14.5L10.83 -0.5Z" fill="#E23E57" fill-opacity="1.000000" fill-rule="nonzero"/>
</svg>
