<svg width="113.142090" height="80.000000" viewBox="0 0 113.142 80" fill="none" xmlns="http://www.w3.org/2000/svg" xmlns:xlink="http://www.w3.org/1999/xlink">
	<desc>
			Created with Pixso.
	</desc>
	<defs>
		<clipPath id="clip43_3916">
			<rect id="logo 2" width="113.142052" height="80.000000" fill="white" fill-opacity="0"/>
		</clipPath>
	</defs>
	<rect id="logo 2" width="113.142052" height="80.000000" fill="#FFFFFF" fill-opacity="0"/>
	<g clip-path="url(#clip43_3916)">
		<path id="Vector" d="M55.9 16.82L55.64 17.1C55.57 17.18 55.52 17.3 55.51 17.41C55.46 17.86 55.61 19.22 55.41 19.68C55.34 19.83 55.16 19.98 55.02 20.02C54.55 20.18 51.25 21.39 50.94 21.59C50.8 21.67 50.69 22.15 50.69 22.15L55.49 21.73L55.57 25.01C55.58 25.14 55.24 25.97 55.16 26.08C55.12 26.13 55.15 26.4 55.15 26.4L56.81 26.41C56.81 26.41 56.82 26.1 56.76 26.01C56.72 25.92 56.45 25.22 56.43 25.03L56.46 21.72L61.2 22.17C61.2 22.17 61.18 21.65 61.03 21.58C60.69 21.42 57.77 20.46 56.83 19.99C56.71 19.93 56.56 19.79 56.52 19.65C56.38 19.2 56.46 17.91 56.46 17.41C56.46 17.3 56.41 17.16 56.36 17.1L56.11 16.82C56.05 16.75 55.95 16.74 55.9 16.82Z" fill="#E23D57" fill-opacity="1.000000" fill-rule="nonzero"/>
		<path id="Vector" d="M22.24 66.04L20.6 66.04L18.63 62.74C18.45 62.44 18.27 62.18 18.1 61.96C17.93 61.75 17.76 61.57 17.58 61.43C17.41 61.3 17.21 61.2 17.01 61.13C16.81 61.07 16.57 61.04 16.32 61.04L15.18 61.04L15.18 66.04L13.8 66.04L13.8 54.28L17.31 54.28C17.83 54.28 18.3 54.35 18.74 54.48C19.17 54.6 19.55 54.8 19.87 55.06C20.19 55.32 20.44 55.65 20.62 56.04C20.8 56.43 20.89 56.89 20.89 57.42C20.89 57.83 20.83 58.2 20.71 58.54C20.58 58.89 20.41 59.19 20.18 59.46C19.95 59.73 19.68 59.95 19.36 60.14C19.04 60.33 18.68 60.48 18.28 60.58L18.28 60.62C18.48 60.7 18.65 60.8 18.79 60.92C18.94 61.03 19.08 61.16 19.21 61.31C19.34 61.47 19.47 61.64 19.6 61.84C19.73 62.03 19.87 62.25 20.03 62.51L22.24 66.04ZM15.18 55.53L15.18 59.79L17.05 59.79C17.4 59.79 17.72 59.74 18.01 59.64C18.3 59.53 18.55 59.39 18.77 59.19C18.98 59 19.15 58.76 19.27 58.48C19.39 58.2 19.45 57.88 19.45 57.53C19.45 56.9 19.24 56.41 18.84 56.06C18.43 55.71 17.84 55.53 17.07 55.53L15.18 55.53L15.18 55.53Z" fill="#000000" fill-opacity="1.000000" fill-rule="nonzero"/>
		<path id="Vector" d="M20.6 66.04L18.63 62.74C18.45 62.44 18.27 62.18 18.1 61.96C17.93 61.75 17.76 61.57 17.58 61.43C17.41 61.3 17.21 61.2 17.01 61.13C16.81 61.07 16.57 61.04 16.32 61.04L15.18 61.04L15.18 66.04L13.8 66.04L13.8 54.28L17.31 54.28C17.83 54.28 18.3 54.35 18.74 54.48C19.17 54.6 19.55 54.8 19.87 55.06C20.19 55.32 20.44 55.65 20.62 56.04C20.8 56.43 20.89 56.89 20.89 57.42C20.89 57.83 20.83 58.2 20.71 58.54C20.58 58.89 20.41 59.19 20.18 59.46C19.95 59.73 19.68 59.95 19.36 60.14C19.04 60.33 18.68 60.48 18.28 60.58L18.28 60.62C18.48 60.7 18.65 60.8 18.79 60.92C18.94 61.03 19.08 61.16 19.21 61.31C19.34 61.47 19.47 61.64 19.6 61.84C19.73 62.03 19.87 62.25 20.03 62.51L22.24 66.04L20.6 66.04ZM15.18 59.79L17.05 59.79C17.4 59.79 17.72 59.74 18.01 59.64C18.3 59.53 18.55 59.39 18.77 59.19C18.98 59 19.15 58.76 19.27 58.48C19.39 58.2 19.45 57.88 19.45 57.53C19.45 56.9 19.24 56.41 18.84 56.06C18.43 55.71 17.84 55.53 17.07 55.53L15.18 55.53L15.18 55.53L15.18 59.79Z" stroke="#000000" stroke-opacity="1.000000" stroke-width="0.387761"/>
		<path id="Vector" d="M28.59 66.24C26.92 66.24 25.58 65.69 24.58 64.59C23.58 63.49 23.08 62.06 23.08 60.3C23.08 58.41 23.59 56.9 24.61 55.77C25.63 54.64 27.02 54.08 28.79 54.08C30.41 54.08 31.72 54.63 32.71 55.72C33.7 56.82 34.2 58.25 34.2 60.01C34.2 61.93 33.69 63.45 32.67 64.56C31.65 65.68 30.29 66.24 28.59 66.24ZM28.69 55.33C27.45 55.33 26.45 55.77 25.68 56.67C24.91 57.56 24.52 58.73 24.52 60.18C24.52 61.62 24.9 62.79 25.65 63.67C26.4 64.55 27.38 65 28.59 65C29.88 65 30.89 64.57 31.64 63.73C32.38 62.89 32.75 61.71 32.75 60.2C32.75 58.64 32.39 57.44 31.67 56.6C30.95 55.75 29.95 55.33 28.69 55.33Z" fill="#000000" fill-opacity="1.000000" fill-rule="nonzero"/>
		<path id="Vector" d="M24.58 64.59C23.58 63.49 23.08 62.06 23.08 60.3C23.08 58.41 23.59 56.9 24.61 55.77C25.63 54.64 27.02 54.08 28.79 54.08C30.41 54.08 31.72 54.63 32.71 55.72C33.7 56.82 34.2 58.25 34.2 60.01C34.2 61.93 33.69 63.45 32.67 64.56C31.65 65.68 30.29 66.24 28.59 66.24C26.92 66.24 25.58 65.69 24.58 64.59ZM25.68 56.67C24.91 57.56 24.52 58.73 24.52 60.18C24.52 61.62 24.9 62.79 25.65 63.67C26.4 64.55 27.38 65 28.59 65C29.88 65 30.89 64.57 31.64 63.73C32.38 62.89 32.75 61.71 32.75 60.2C32.75 58.64 32.39 57.44 31.67 56.6C30.95 55.75 29.95 55.33 28.69 55.33C27.45 55.33 26.45 55.77 25.68 56.67Z" stroke="#000000" stroke-opacity="1.000000" stroke-width="0.387761"/>
		<path id="Vector" d="M45.27 61.28C45.27 64.59 43.78 66.24 40.8 66.24C37.95 66.24 36.52 64.65 36.52 61.47L36.52 54.28L37.9 54.28L37.9 61.38C37.9 63.79 38.92 65 40.95 65C42.91 65 43.9 63.83 43.9 61.5L43.9 54.28L45.28 54.28L45.28 61.28L45.27 61.28Z" fill="#000000" fill-opacity="1.000000" fill-rule="nonzero"/>
		<path id="Vector" d="M40.8 66.24C37.95 66.24 36.52 64.65 36.52 61.47L36.52 54.28L37.9 54.28L37.9 61.38C37.9 63.79 38.92 65 40.95 65C42.91 65 43.9 63.83 43.9 61.5L43.9 54.28L45.28 54.28L45.28 61.28L45.27 61.28C45.27 64.59 43.78 66.24 40.8 66.24Z" stroke="#000000" stroke-opacity="1.000000" stroke-width="0.387761"/>
		<path id="Vector" d="M60.36 66.04L58.99 66.04L58.99 58.15C58.99 57.53 59.03 56.76 59.1 55.86L59.07 55.86C58.94 56.39 58.82 56.77 58.72 57L54.7 66.04L54.02 66.04L50.01 57.07C49.9 56.8 49.78 56.4 49.66 55.86L49.62 55.86C49.67 56.33 49.69 57.1 49.69 58.17L49.69 66.04L48.36 66.04L48.36 54.28L50.18 54.28L53.79 62.48C54.07 63.11 54.25 63.58 54.33 63.89L54.38 63.89C54.61 63.25 54.8 62.76 54.95 62.45L58.63 54.28L60.35 54.28L60.35 66.04L60.36 66.04Z" fill="#000000" fill-opacity="1.000000" fill-rule="nonzero"/>
		<path id="Vector" d="M58.99 66.04L58.99 58.15C58.99 57.53 59.03 56.76 59.1 55.86L59.07 55.86C58.94 56.39 58.82 56.77 58.72 57L54.7 66.04L54.02 66.04L50.01 57.07C49.9 56.8 49.78 56.4 49.66 55.86L49.62 55.86C49.67 56.33 49.69 57.1 49.69 58.17L49.69 66.04L48.36 66.04L48.36 54.28L50.18 54.28L53.79 62.48C54.07 63.11 54.25 63.58 54.33 63.89L54.38 63.89C54.61 63.25 54.8 62.76 54.95 62.45L58.63 54.28L60.35 54.28L60.35 66.04L60.36 66.04L58.99 66.04Z" stroke="#000000" stroke-opacity="1.000000" stroke-width="0.387761"/>
		<path id="Vector" d="M75.6 66.04L74.23 66.04L74.23 58.15C74.23 57.53 74.27 56.76 74.35 55.86L74.31 55.86C74.18 56.39 74.06 56.77 73.96 57L69.94 66.04L69.27 66.04L65.26 57.07C65.14 56.8 65.02 56.4 64.9 55.86L64.87 55.86C64.91 56.33 64.93 57.1 64.93 58.17L64.93 66.04L63.61 66.04L63.61 54.28L65.43 54.28L69.03 62.48C69.31 63.11 69.49 63.58 69.57 63.89L69.62 63.89C69.86 63.25 70.05 62.76 70.19 62.45L73.87 54.28L75.6 54.28L75.6 66.04L75.6 66.04Z" fill="#000000" fill-opacity="1.000000" fill-rule="nonzero"/>
		<path id="Vector" d="M74.23 66.04L74.23 58.15C74.23 57.53 74.27 56.76 74.35 55.86L74.31 55.86C74.18 56.39 74.06 56.77 73.96 57L69.94 66.04L69.27 66.04L65.26 57.07C65.14 56.8 65.02 56.4 64.9 55.86L64.87 55.86C64.91 56.33 64.93 57.1 64.93 58.17L64.93 66.04L63.61 66.04L63.61 54.28L65.43 54.28L69.03 62.48C69.31 63.11 69.49 63.58 69.57 63.89L69.62 63.89C69.86 63.25 70.05 62.76 70.19 62.45L73.87 54.28L75.6 54.28L75.6 66.04L75.6 66.04L74.23 66.04Z" stroke="#000000" stroke-opacity="1.000000" stroke-width="0.387761"/>
		<path id="Vector" d="M87.95 66.04L86.43 66.04L85.18 62.74L80.2 62.74L79.02 66.04L77.49 66.04L82 54.28L83.43 54.28L87.95 66.04ZM84.73 61.51L82.89 56.49C82.83 56.33 82.77 56.07 82.71 55.71L82.67 55.71C82.62 56.04 82.55 56.3 82.48 56.49L80.65 61.51L84.73 61.51Z" fill="#000000" fill-opacity="1.000000" fill-rule="nonzero"/>
		<path id="Vector" d="M86.43 66.04L85.18 62.74L80.2 62.74L79.02 66.04L77.49 66.04L82 54.28L83.43 54.28L87.95 66.04L86.43 66.04ZM82.89 56.49C82.83 56.33 82.77 56.07 82.71 55.71L82.67 55.71C82.62 56.04 82.55 56.3 82.48 56.49L80.65 61.51L84.73 61.51L82.89 56.49Z" stroke="#000000" stroke-opacity="1.000000" stroke-width="0.387761"/>
		<path id="Vector" d="M99.33 66.04L97.64 66.04L91.58 56.67C91.43 56.43 91.3 56.19 91.21 55.93L91.16 55.93C91.2 56.18 91.22 56.72 91.22 57.54L91.22 66.04L89.84 66.04L89.84 54.28L91.63 54.28L97.52 63.5C97.77 63.89 97.93 64.15 98 64.29L98.03 64.29C97.98 63.95 97.95 63.38 97.95 62.56L97.95 54.28L99.33 54.28L99.33 66.04Z" fill="#000000" fill-opacity="1.000000" fill-rule="nonzero"/>
		<path id="Vector" d="M97.64 66.04L91.58 56.67C91.43 56.43 91.3 56.19 91.21 55.93L91.16 55.93C91.2 56.18 91.22 56.72 91.22 57.54L91.22 66.04L89.84 66.04L89.84 54.28L91.63 54.28L97.52 63.5C97.77 63.89 97.93 64.15 98 64.29L98.03 64.29C97.98 63.95 97.95 63.38 97.95 62.56L97.95 54.28L99.33 54.28L99.33 66.04L97.64 66.04Z" stroke="#000000" stroke-opacity="1.000000" stroke-width="0.387761"/>
		<path id="Vector" d="M22.57 70.38L22.32 70.67C22.26 70.75 22.23 70.86 22.24 70.96C22.28 71.43 22.37 72.77 22.16 73.22C22.11 73.35 21.92 73.54 21.79 73.59C21.33 73.77 17.83 75.18 17.52 75.39C17.39 75.49 17.32 75.9 17.32 75.9L22.19 75.3L22.63 78.58C22.65 78.7 22.21 79.52 22.13 79.63C22.1 79.69 22.11 79.99 22.11 79.99L23.7 79.96C23.7 79.96 23.7 79.68 23.64 79.6C23.59 79.51 23.26 78.74 23.23 78.56L23.37 75.25L28.12 75.48C28.12 75.48 28.08 74.95 27.92 74.89C27.57 74.75 24.56 73.93 23.59 73.55C23.45 73.49 23.32 73.34 23.27 73.2C23.11 72.76 23.12 71.47 23.13 70.95C23.13 70.79 23.13 70.76 23.02 70.64L22.78 70.37C22.72 70.3 22.62 70.3 22.57 70.38Z" fill="#E23D57" fill-opacity="1.000000" fill-rule="nonzero"/>
		<path id="Vector" d="M38.37 73.49L38.16 73.49C36.71 73.49 35.9 74.41 35.9 76.1L35.9 79.3L34.83 79.3L34.83 72.47L35.9 72.47L35.9 74.01L35.93 74.01C36.21 72.99 37.04 72.26 38.19 72.26L38.37 72.26L38.37 73.49Z" fill="#E23D57" fill-opacity="1.000000" fill-rule="nonzero"/>
		<path id="Vector" d="M45.22 75.89C45.22 73.63 46.73 72.25 48.61 72.25C49.85 72.25 50.72 72.83 51.2 73.68L51.23 73.68L51.23 72.47L52.29 72.47L52.29 79.3L51.23 79.3L51.23 78.09L51.2 78.09C50.73 78.95 49.85 79.52 48.61 79.52C46.73 79.52 45.22 78.15 45.22 75.89ZM51.28 75.89C51.28 74.38 50.31 73.3 48.82 73.3C47.32 73.3 46.35 74.38 46.35 75.89C46.35 77.4 47.32 78.48 48.82 78.48C50.31 78.48 51.28 77.39 51.28 75.89Z" fill="#E23D57" fill-opacity="1.000000" fill-rule="nonzero"/>
		<path id="Vector" d="M66.48 72.47L63.7 79.3L62.68 79.3L59.9 72.47L61.14 72.47L63.18 78.03L65.24 72.47L66.48 72.47Z" fill="#E23D57" fill-opacity="1.000000" fill-rule="nonzero"/>
		<path id="Vector" d="M80.12 75.84L80.12 76.04L74.44 76.04C74.47 77.54 75.46 78.49 76.89 78.49C78.16 78.49 78.81 77.74 79.23 77.19L80 77.88C79.49 78.59 78.62 79.52 76.91 79.52C74.75 79.52 73.36 78.06 73.36 75.9C73.36 73.71 74.75 72.25 76.83 72.25C79.07 72.25 80.12 73.82 80.12 75.84ZM74.48 75.22L78.96 75.22C78.85 73.98 78.09 73.24 76.77 73.24C75.59 73.24 74.65 73.92 74.48 75.22Z" fill="#E23D57" fill-opacity="1.000000" fill-rule="nonzero"/>
		<path id="Vector" d="M89.31 79.3L88.25 79.3L88.25 68.95L89.31 68.95L89.31 79.3Z" fill="#E23D57" fill-opacity="1.000000" fill-rule="nonzero"/>
		<path id="Vector" d="M73.59 17.24C73.59 7.72 65.87 0 56.34 0C46.82 0 39.1 7.72 39.1 17.24C39.1 17.24 39 17.89 39.27 19.3C39.44 20.25 39.71 21.17 40.06 22.06C40.89 24.37 42.41 27.57 45.17 31.78C47.53 35.36 54.26 45.77 56.07 48.5L55.62 34.33L55.46 26.22C55.28 26.24 55.09 26.25 54.9 26.25C51.15 26.25 48.1 23.2 48.1 19.45C48.1 16.17 50.42 13.44 53.5 12.79C53.76 12.73 54 12.57 54.14 12.33C54.31 12.05 54.43 11.69 54.36 11.24C54.21 10.3 53.68 9.74 53.68 9.74C53.68 9.74 54.29 9.75 54.83 10.18C55.08 10.38 55.29 10.65 55.43 10.83C55.41 10.52 55.41 9.95 55.54 9.6C55.55 9.58 55.55 9.56 55.56 9.55C55.73 9.02 56.22 8.56 56.22 8.56C56.22 8.56 56.22 8.56 56.23 8.56L56.23 8.56C56.23 8.56 56.72 9.02 56.9 9.55C56.9 9.56 56.91 9.58 56.91 9.6C57.05 9.95 57.04 10.52 57.02 10.83C57.16 10.65 57.37 10.38 57.62 10.18C58.17 9.75 58.77 9.74 58.77 9.74C58.77 9.74 58.24 10.3 58.1 11.24C58.03 11.69 58.15 12.05 58.31 12.33C58.45 12.57 58.69 12.73 58.96 12.79C62.24 13.48 64.65 16.53 64.33 20.08C64.04 23.2 61.6 25.75 58.5 26.18C57.82 26.28 57.16 26.27 56.53 26.17L56.35 44.34L56.41 48.5C56.41 48.5 65.5 36.08 68.22 31.77C71.64 26.35 72.89 22.09 73.34 19.62C73.47 19 73.56 18.37 73.58 17.71C73.6 17.41 73.59 17.24 73.59 17.24Z" fill="#E23D57" fill-opacity="1.000000" fill-rule="nonzero"/>
	</g>
</svg>
