<svg width="17.000000" height="18.665771" viewBox="0 0 17 18.6658" fill="none" xmlns="http://www.w3.org/2000/svg" xmlns:xlink="http://www.w3.org/1999/xlink">
	<desc>
			Created with Pixso.
	</desc>
	<defs>
		<filter id="filter_336_5392_dd" x="0.000000" y="0.000000" width="17.000000" height="18.665771" filterUnits="userSpaceOnUse" color-interpolation-filters="sRGB">
			<feFlood flood-opacity="0" result="BackgroundImageFix"/>
			<feColorMatrix in="SourceAlpha" type="matrix" values="0 0 0 0 0 0 0 0 0 0 0 0 0 0 0 0 0 0 127 0" result="hardAlpha"/>
			<feOffset dx="0" dy="1"/>
			<feGaussianBlur stdDeviation="0.333333"/>
			<feComposite in2="hardAlpha" operator="out" k2="-1" k3="1"/>
			<feColorMatrix type="matrix" values="0 0 0 0 0 0 0 0 0 0 0 0 0 0 0 0 0 0 0.25 0"/>
			<feBlend mode="normal" in2="BackgroundImageFix" result="effect_dropShadow_1"/>
			<feBlend mode="normal" in="SourceGraphic" in2="effect_dropShadow_1" result="shape"/>
		</filter>
	</defs>
	<g filter="url(#filter_336_5392_dd)">
		<path id="Vector" d="M4.33 4.16C4.33 3.37 4.55 2.6 4.97 1.93C5.4 1.27 6 0.73 6.71 0.4C7.42 0.06 8.22 -0.07 9 0.03C9.78 0.12 10.52 0.44 11.13 0.93C11.74 1.43 12.2 2.09 12.45 2.84C12.7 3.59 12.73 4.39 12.54 5.16C12.35 5.92 11.95 6.62 11.38 7.17C10.81 7.71 10.1 8.09 9.33 8.24L9.33 12.49C9.33 12.72 9.24 12.93 9.08 13.08C8.93 13.24 8.72 13.33 8.5 13.33C8.27 13.33 8.06 13.24 7.91 13.08C7.75 12.93 7.66 12.72 7.66 12.49L7.66 8.24C6.72 8.05 5.87 7.54 5.27 6.8C4.66 6.05 4.33 5.12 4.33 4.16ZM6.4 11.74C6.42 11.85 6.41 11.96 6.39 12.07C6.36 12.18 6.32 12.28 6.25 12.36C6.19 12.45 6.1 12.53 6.01 12.58C5.92 12.64 5.81 12.68 5.7 12.69C4.64 12.86 3.79 13.1 3.24 13.37C2.96 13.51 2.79 13.63 2.71 13.73C2.7 13.73 2.69 13.74 2.69 13.74C2.72 13.78 2.76 13.82 2.85 13.88C3.08 14.06 3.47 14.25 4.03 14.42C5.13 14.77 6.71 14.99 8.5 14.99C10.28 14.99 11.86 14.77 12.96 14.42C13.52 14.25 13.91 14.06 14.14 13.88C14.23 13.82 14.27 13.78 14.3 13.74C14.3 13.74 14.29 13.73 14.28 13.73C14.2 13.63 14.03 13.51 13.75 13.37C13.2 13.1 12.35 12.86 11.29 12.69C11.18 12.68 11.07 12.64 10.98 12.59C10.88 12.53 10.8 12.46 10.73 12.37C10.67 12.28 10.62 12.18 10.59 12.07C10.56 11.96 10.56 11.85 10.58 11.74C10.59 11.63 10.63 11.53 10.69 11.43C10.75 11.34 10.82 11.26 10.91 11.19C11 11.13 11.1 11.08 11.21 11.06C11.32 11.03 11.43 11.03 11.54 11.05C12.69 11.22 13.72 11.5 14.49 11.88C14.87 12.06 15.22 12.29 15.49 12.58C15.77 12.87 16 13.26 16 13.74C16 14.42 15.56 14.91 15.13 15.23C14.69 15.55 14.11 15.81 13.46 16.01C12.15 16.42 10.4 16.66 8.5 16.66C6.59 16.66 4.84 16.42 3.53 16.01C2.88 15.81 2.3 15.55 1.86 15.23C1.43 14.91 1 14.42 1 13.74C1 13.26 1.22 12.87 1.5 12.58C1.77 12.29 2.12 12.06 2.5 11.88C3.27 11.5 4.3 11.22 5.45 11.05C5.56 11.03 5.67 11.04 5.78 11.06C5.88 11.09 5.98 11.13 6.07 11.2C6.16 11.26 6.23 11.35 6.29 11.44C6.35 11.53 6.39 11.64 6.4 11.74Z" fill="#000000" fill-opacity="1.000000" fill-rule="evenodd"/>
	</g>
</svg>
